<svg id="Layer_1" data-name="Layer 1" xmlns="http://www.w3.org/2000/svg" viewBox="0 0 549.67 584.12"><title>login_bk</title><path d="M0,561.33c.44-2.77.86-5.54,1.34-8.3,7.05-40.65,20.22-79,42.72-113.84,18.78-29.09,42.83-53,71.38-72.51,21.18-14.45,44-25.79,67.86-35,6.14-2.37,12.14-5.12,18.48-7.81-1.89-1.15-3.55-2.19-5.25-3.19-10.91-6.42-21.59-13.2-31.27-21.43Q120.1,260.81,108,202.78a163.08,163.08,0,0,1-3.47-34.05C104.61,131.07,116,97.06,138.43,67q35.37-47.4,92.93-62.09A153.8,153.8,0,0,1,264.09.27,7.63,7.63,0,0,0,265.33,0H276c2.29.2,4.58.43,6.88.6a160.77,160.77,0,0,1,73.4,23.69C389.91,45,413.69,73.81,427.1,111a164.47,164.47,0,0,1,9.72,51.14c1.29,43.82-11.9,82.71-40,116.41-12.61,15.1-27.66,27.39-44.36,37.7-3.35,2.07-6.64,4.21-10.2,6.47.62.26,1,.46,1.44.61,14.07,5.26,28.3,10.07,42,16.3C416,353.47,443.81,371.13,468,394.21a251.4,251.4,0,0,1,49,65.2,304,304,0,0,1,29.26,84.76c1.38,7.18,2.07,14.49,3.09,21.74a8.34,8.34,0,0,0,.29,1.09v3a42.61,42.61,0,0,1-1.43,4.91,15.27,15.27,0,0,1-16.24,9c-6.46-1.05-11.63-6.77-12.35-13.51-2.48-23.28-7.38-46-15.75-67.9-8.77-23-21.49-43.65-36.63-62.91A247.35,247.35,0,0,0,411.51,387a227,227,0,0,0-78.59-33.7,274.11,274.11,0,0,0-68.65-6.24c-35.58,1.1-69.54,8.94-101.38,25.18a235.6,235.6,0,0,0-56.16,40.15,262,262,0,0,0-43.46,53.5,230.68,230.68,0,0,0-29.21,76c-1.75,9-2.87,18.08-4,27.16S22.28,584.34,13.67,584c-6.26-.24-13-5.6-13.39-11.78,0-.19-.18-.37-.28-.55ZM269.35,307.28c.83,0,1.67,0,2.5,0s1.66-.07,2.5-.1a137.29,137.29,0,0,0,58.92-15.36A131.45,131.45,0,0,0,383.7,246.4c20.36-31.26,26.84-65.51,20.48-102.07A135.79,135.79,0,0,0,363.6,68c-24.72-23.75-54.3-36.4-88.64-37.5a128.21,128.21,0,0,0-48.38,7.68C191.36,51.08,165.29,74.36,148.72,108c-13.45,27.26-17.17,56.08-11.57,85.92s19.42,55.7,41.6,76.69C204.12,294.56,234.35,306.88,269.35,307.28Z"/></svg>